PathFileType	4	(X/Y/Z)	 s07c0401.trc
DataRate	CameraRate	NumFrames	NumMarkers	Units	OrigDataRate	OrigDataStartFrame	OrigNumFrames
200	200	6	48	mm	200	1	2000
Frame#	Time	racr			lacr			c7			jug			rlel			rdr			llel			ldr			s2			lic			ric			lasi			rasi			rpsi			lpsi			rgt			lgt			rth1			rth2			rth3			rth4			rlfc			rmfc			rsh1			rsh2			rsh3			rsh4			rlmal			rcal			rtoe			rmt5			lth1			lth2			lth4			lth3			llfc			lmfc			lsh1			lsh2			lsh3			lsh4			llmal			lcal			ltoe			lmt5			SBIKE			LBIKE			RBIKE			
		X1	Y1	Z1	X2	Y2	Z2	X3	Y3	Z3	X4	Y4	Z4	X5	Y5	Z5	X6	Y6	Z6	X7	Y7	Z7	X8	Y8	Z8	X9	Y9	Z9	X10	Y10	Z10	X11	Y11	Z11	X12	Y12	Z12	X13	Y13	Z13	X14	Y14	Z14	X15	Y15	Z15	X16	Y16	Z16	X17	Y17	Z17	X18	Y18	Z18	X19	Y19	Z19	X20	Y20	Z20	X21	Y21	Z21	X22	Y22	Z22	X23	Y23	Z23	X24	Y24	Z24	X25	Y25	Z25	X26	Y26	Z26	X27	Y27	Z27	X28	Y28	Z28	X29	Y29	Z29	X30	Y30	Z30	X31	Y31	Z31	X32	Y32	Z32	X33	Y33	Z33	X34	Y34	Z34	X35	Y35	Z35	X36	Y36	Z36	X37	Y37	Z37	X38	Y38	Z38	X39	Y39	Z39	X40	Y40	Z40	X41	Y41	Z41	X42	Y42	Z42	X43	Y43	Z43	X44	Y44	Z44	X45	Y45	Z45	X46	Y46	Z46	X47	Y47	Z47	X48	Y48	Z48	
1	0.0050	413.465885	1497.464976	-87.262869	405.363607	1482.365395	-345.312980	372.909432	1529.191882	-227.830196	351.460468	1385.361909	-224.678698	486.232686	1174.712875	37.124495	701.418432	972.450950	-15.737347	514.289897	1175.390436	-443.767509	695.458442	936.902086	-407.279411	-147.563228	1211.692538	-226.892762	-0.499420	1288.510278	-361.235250	22.653560	1251.249831	-70.175687	42.442065	1211.178967	-338.317026	43.214786	1192.228728	-90.961278	-120.537200	1246.205127	-171.100438	-119.123105	1266.183291	-275.817760	-37.798682	1102.183223	-45.625176	-29.655563	1143.418570	-412.903246	32.368449	964.173201	-34.051411	83.158166	892.075027	-40.899939	93.125706	807.265142	-42.542639	115.283212	905.734879	-53.100042	141.716287	676.420606	-75.343512	138.516993	662.633585	-174.088924	115.291439	535.126853	-50.076156	129.509447	448.728820	-70.361015	100.982757	366.405823	-69.505753	145.416724	452.134280	-107.017517	82.282136	227.816783	-78.905644	23.021590	180.557876	-106.818979	314.202146	189.383294	-117.520034	239.976983	146.535312	-48.569770	72.485898	1087.397455	-420.004868	160.624573	1088.409833	-423.901059	170.535011	1121.601053	-410.397655	238.544537	1044.212650	-426.920407	400.779363	963.726793	-406.346575	398.763662	945.632857	-303.905863	313.276654	841.645319	-417.331879	273.713431	768.735176	-393.054783	199.500742	717.179747	-397.740183	278.044058	771.148703	-352.430283	104.358163	632.084961	-390.275204	26.535645	636.720906	-355.997117	255.595680	460.458084	-353.006975	175.592699	485.567389	-417.733353	-260.284216	978.231716	-230.225079	-76.245510	83.459927	-435.332517	-81.868094	79.177271	-37.749348	
2	0.0100	413.532075	1497.148419	-87.089914	405.308920	1482.350027	-345.173034	373.035479	1528.968847	-227.621936	351.512611	1385.152639	-224.729274	486.032616	1174.272574	37.169977	700.990434	971.989655	-16.211597	514.104325	1175.378115	-443.924098	696.227968	938.647543	-411.106419	-147.549814	1211.704208	-226.881769	-0.464338	1288.501479	-361.210290	22.637484	1251.224689	-70.159422	42.438266	1211.164625	-338.283617	43.183581	1192.220197	-90.870332	-120.540457	1246.216779	-171.087259	-119.083442	1266.172064	-275.800027	-37.833710	1102.153355	-45.630662	-29.682083	1143.417611	-412.880716	32.335500	964.105566	-34.051730	83.134596	892.071131	-40.955266	93.117364	807.265332	-42.617639	115.269953	905.670953	-53.174505	141.790528	676.446782	-75.397564	138.545872	662.678603	-174.134790	115.335649	535.191809	-50.120835	129.552759	448.770481	-70.395921	101.003675	366.427697	-69.547991	145.444344	452.138129	-107.093310	82.254165	227.876296	-78.945105	22.962354	180.653095	-106.802354	314.142660	189.319645	-117.518879	239.914187	146.510704	-48.568000	72.414746	1087.388410	-420.014736	160.581273	1088.392136	-423.900169	170.492640	1121.596088	-410.402143	238.491397	1044.155622	-426.647275	400.743842	963.772614	-406.413161	398.760684	945.684541	-303.972758	313.267153	841.686826	-417.391335	273.719044	768.759277	-393.092519	199.518892	717.187465	-397.755106	278.058189	771.198793	-352.464280	104.385675	632.092872	-390.293599	26.558995	636.691993	-355.996877	255.659654	460.515235	-352.993535	175.645627	485.610485	-417.733088	-260.279612	978.221313	-230.210281	-76.264344	83.489087	-435.333093	-81.860649	79.183696	-37.755255	
3	0.0150	413.595938	1496.807768	-86.855643	405.280483	1482.355682	-345.044379	373.184976	1528.787690	-227.443839	351.590488	1384.989981	-224.727972	485.941978	1173.903717	37.168583	700.483269	971.423018	-16.762142	513.928903	1175.356070	-444.111817	696.244026	938.729502	-411.130226	-147.555518	1211.735699	-226.897068	-0.440745	1288.524542	-361.167988	22.614568	1251.210189	-70.135074	42.438890	1211.173429	-338.228498	43.165108	1192.202166	-90.857392	-120.536679	1246.245186	-171.088102	-119.056666	1266.213875	-275.804992	-37.887501	1102.151727	-45.635511	-29.702791	1143.411298	-412.861586	32.293866	964.094235	-34.044872	83.126969	892.078748	-40.978844	93.115251	807.280767	-42.651748	115.375574	905.563829	-53.384255	141.843594	676.479872	-75.406743	138.597357	662.718707	-174.161447	115.363617	535.229462	-50.141254	129.579125	448.790387	-70.399017	101.019934	366.489165	-69.559966	145.459050	452.171927	-107.117647	82.267707	227.932642	-78.936692	22.891153	181.017383	-107.048110	314.114397	189.282067	-117.521598	239.867886	146.506771	-48.572902	72.371390	1087.366050	-420.014716	160.529117	1088.399303	-423.933889	170.451443	1121.592925	-410.424328	238.433030	1044.174075	-426.679545	400.714786	963.794748	-406.461853	398.722456	945.720088	-304.028893	313.256486	841.706566	-417.406422	273.698952	768.775881	-393.114256	199.508949	717.206522	-397.783992	278.027295	771.210754	-352.468343	104.380024	632.166113	-390.259915	26.551615	636.664392	-355.999489	255.737076	460.575696	-352.972470	175.695419	485.638593	-417.728855	-260.273849	978.232347	-230.219289	-76.253884	83.486995	-435.346070	-81.854988	79.184269	-37.759370	
4	0.0200	413.647788	1496.521904	-86.646018	403.934236	1482.812310	-346.461111	373.325646	1528.605813	-227.288329	351.668053	1384.848493	-224.723039	485.915066	1173.581527	37.101860	699.987480	970.798678	-17.332490	513.780605	1175.297194	-444.279959	695.431336	937.074494	-407.163086	-147.548948	1211.644906	-226.800913	-0.015335	1288.638767	-361.454937	22.676237	1251.256922	-70.699501	42.714746	1210.653510	-338.384060	43.019979	1192.311880	-90.866446	-120.529279	1246.262378	-171.105897	-117.786687	1266.468210	-277.252096	-37.936656	1102.160827	-45.654536	-29.727915	1143.413102	-412.861891	32.251955	964.083310	-34.049035	83.095726	892.094976	-41.014082	93.136396	807.295380	-42.682467	115.357664	905.622454	-53.385037	141.923307	676.371697	-75.336717	138.613858	662.766682	-174.195312	115.390400	535.275614	-50.157622	129.845239	448.965347	-70.242161	101.047383	366.527296	-69.565228	145.496679	452.216258	-107.097652	81.954640	228.471681	-78.601783	22.948293	180.740074	-106.836510	314.104520	189.218146	-117.503969	240.115061	145.822131	-49.182773	72.314714	1087.377601	-420.025605	160.632114	1088.650932	-424.282105	170.191699	1121.988431	-410.657046	238.262970	1044.746665	-427.053628	402.883427	962.619780	-403.183161	398.705291	945.700613	-304.039431	313.213215	841.726773	-417.431583	274.032697	768.413390	-393.191295	199.394688	717.085163	-397.918533	278.330272	771.116001	-352.326315	104.403063	632.072303	-390.272226	26.519095	636.598892	-355.962394	255.668909	460.433692	-352.921259	175.556708	481.028205	-410.068716	-260.423903	978.345498	-230.805441	-76.259783	83.483007	-435.340321	-81.847141	79.182705	-37.756417	
5	0.0250	413.770309	1496.466594	-86.274152	403.398097	1482.163580	-344.862447	373.483021	1528.351267	-227.072522	358.105326	1383.532533	-217.410361	486.111667	1173.531921	37.411956	702.107374	968.999755	-12.993454	515.126109	1173.078070	-436.499035	695.213311	935.927526	-405.224283	-148.362258	1211.868867	-226.662505	0.053419	1288.799304	-361.399005	22.518293	1251.552119	-70.461289	56.772390	1210.257482	-331.475424	51.527853	1190.913597	-83.135257	-120.624013	1246.122828	-171.032229	-117.811168	1266.509084	-277.231713	-38.226162	1102.375919	-45.382047	-29.844705	1143.238756	-412.997367	32.090153	964.244894	-33.967391	83.007362	892.318106	-40.907878	93.060927	807.580401	-42.575830	115.127688	905.929297	-52.121168	141.740678	676.872029	-75.069397	138.686608	662.744616	-174.170295	115.266271	535.490216	-50.005225	129.800320	449.231637	-70.101488	100.952215	366.918874	-69.172583	145.473453	452.472849	-107.039690	82.284581	228.266834	-78.705588	22.290109	181.082819	-106.830177	313.834917	189.319517	-116.678553	240.048798	146.018917	-49.178208	75.063245	1085.503257	-414.593902	160.439517	1088.968950	-424.141552	173.915628	1120.348735	-405.084709	238.178178	1044.919097	-427.137217	403.907800	962.173688	-401.488761	398.549016	946.143481	-303.762625	315.801683	839.712974	-412.932005	274.013106	768.545296	-393.106977	203.105730	714.288876	-391.434481	285.337467	770.496621	-345.124814	104.173755	632.171165	-390.188886	26.401143	636.540802	-356.129110	257.121421	458.081504	-346.553469	177.836223	479.325371	-406.581053	-260.619904	978.373245	-231.137690	-76.096067	83.592430	-435.232315	-81.871255	79.577033	-37.316184	
6	0.0300	413.827005	1496.256993	-86.073679	404.608786	1483.225823	-348.034729	373.662477	1528.215127	-226.932760	351.766530	1384.795591	-224.673282	486.002126	1173.117789	36.910353	698.901554	969.327416	-18.616311	513.486436	1175.386263	-444.539958	695.386093	936.447102	-406.394793	-147.516242	1211.667958	-226.933518	0.057617	1288.793358	-361.433198	22.555376	1251.515316	-70.522350	42.693300	1210.992837	-338.322522	43.584254	1192.194274	-90.199277	-120.703056	1246.528645	-171.029440	-118.116624	1266.790761	-276.650384	-38.208933	1102.448869	-45.535833	-29.806250	1143.531153	-412.971110	32.093402	964.220942	-33.958762	82.999201	892.375822	-40.947747	93.098480	807.601721	-42.619830	115.123139	905.974541	-52.930907	141.788835	676.838923	-75.136601	138.767839	662.766306	-174.115698	115.276158	535.517724	-50.030233	129.701569	449.212366	-70.125603	100.936475	366.891153	-69.330907	145.494929	452.471788	-106.992857	82.013804	228.576185	-78.581002	23.104295	180.765808	-107.019008	313.968687	189.412563	-117.204831	240.066020	146.029594	-49.181842	72.221051	1087.480571	-420.071545	160.479323	1088.832149	-424.287359	170.259296	1121.753107	-410.606053	238.177211	1044.956390	-427.067730	400.688122	963.879187	-406.613980	398.472511	946.103666	-303.801685	313.129105	841.744828	-417.539991	273.798858	768.741982	-393.299734	199.187806	717.250799	-397.883603	277.371785	770.640659	-353.221658	104.276234	632.026285	-390.261426	26.450194	636.550695	-356.050591	255.752312	460.581248	-352.931353	175.645398	485.451017	-417.391910	-260.461974	978.379467	-230.862695	-76.454418	83.335147	-435.489668	-81.975172	79.497410	-37.631653	
